<?xml version="1.0" encoding="UTF-8" standalone="no"?>
<svg
   xmlns:dc="http://purl.org/dc/elements/1.1/"
   xmlns:cc="http://creativecommons.org/ns#"
   xmlns:rdf="http://www.w3.org/1999/02/22-rdf-syntax-ns#"
   xmlns:svg="http://www.w3.org/2000/svg"
   xmlns="http://www.w3.org/2000/svg"
   xmlns:sodipodi="http://sodipodi.sourceforge.net/DTD/sodipodi-0.dtd"
   xmlns:inkscape="http://www.inkscape.org/namespaces/inkscape"
   sodipodi:docname="person.svg"
   inkscape:version="1.0 (4035a4f, 2020-05-01)"
   id="svg8"
   version="1.1"
   viewBox="0 0 87.231148 184.68204"
   height="184.68204mm"
   width="87.231148mm">
  <defs
     id="defs2" />
  <sodipodi:namedview
     inkscape:window-maximized="1"
     inkscape:window-y="0"
     inkscape:window-x="0"
     inkscape:window-height="1056"
     inkscape:window-width="1920"
     fit-margin-bottom="0"
     fit-margin-right="0"
     fit-margin-left="0"
     fit-margin-top="0"
     inkscape:snap-global="false"
     showgrid="false"
     inkscape:document-rotation="0"
     inkscape:current-layer="layer1"
     inkscape:document-units="mm"
     inkscape:cy="348.73598"
     inkscape:cx="239.29475"
     inkscape:zoom="0.7"
     inkscape:pageshadow="2"
     inkscape:pageopacity="0.0"
     borderopacity="1.0"
     bordercolor="#666666"
     pagecolor="#ffffff"
     id="base" />
  <metadata
     id="metadata5">
    <rdf:RDF>
      <cc:Work
         rdf:about="">
        <dc:format>image/svg+xml</dc:format>
        <dc:type
           rdf:resource="http://purl.org/dc/dcmitype/StillImage" />
        <dc:title></dc:title>
      </cc:Work>
    </rdf:RDF>
  </metadata>
  <g
     transform="translate(-42.208386,-59.984562)"
     id="layer1"
     inkscape:groupmode="layer"
     inkscape:label="Layer 1">
    <path
       transform="scale(0.26458333)"
       d="m 323.0625,236.16211 a 94.670536,105.00719 0 0 0 -94.66992,105.00781 94.670536,105.00719 0 0 0 29.20703,75.85547 h -35.50586 c -29.42734,0 -53.11719,11.58137 -53.11719,25.96875 v 239.63477 c 0,10.19713 11.90727,18.98031 29.31641,23.23437 -1.71716,2.84816 -2.72266,6.1781 -2.72266,9.75977 v 150.33984 c -5.96604,3.09074 -10.0664,9.56114 -10.0664,17.10156 v 12.51367 c 0,10.55267 8.01125,19.04883 17.96289,19.04883 h 94.77734 c 9.95164,0 17.96289,-8.49616 17.96289,-19.04883 v -12.51367 c 0,-7.53916 -4.10003,-14.00824 -10.06445,-17.09961 V 715.62305 c 0,-2.4871 -0.48979,-4.85234 -1.35547,-7.02344 h 36.37891 c -1.46691,2.68898 -2.30079,5.77782 -2.30079,9.06836 v 150.36914 c -4.68343,3.431 -7.74609,9.15681 -7.74609,15.67578 v 12.51367 c 0,10.55267 8.01126,19.04883 17.96289,19.04883 h 94.77735 c 9.95164,0 17.96289,-8.49616 17.96289,-19.04883 v -12.51367 c 0,-8.48518 -5.18345,-15.62947 -12.38672,-18.10742 v -147.9375 c 0,-4.04465 -1.26839,-7.77665 -3.41602,-10.84375 19.79204,-3.7698 33.75195,-13.15346 33.75195,-24.19531 V 442.99414 c 0,-14.38738 -23.68982,-25.96875 -53.11718,-25.96875 H 388.52734 A 94.670536,105.00719 0 0 0 417.73242,341.16992 94.670536,105.00719 0 0 0 323.0625,236.16211 Z"
       style="fill:#000000;stroke:#000000;stroke-width:18.8976"
       id="rect10" />
  </g>
</svg>
