# Created by Kenney (www.kenney.nl)

mtllib temple1.1.mtl

g mergedBlocks

v 0.324 0.796 0.324
v 0.324 0.796 -0.324
v -0.324 0.796 0.324
v -0.324 0.796 -0.324
v -0.324 1.444 -0.324
v -0.324 1.444 0.324
v 0.324 1.444 -0.324
v 0.324 1.444 0.324
v -0.3272 0.796 0.162
v -0.3272 0.796 -0.162
v -0.4892 0.796 0.162
v -0.4892 0.796 -0.162
v -0.3272 1.444 -0.162
v -0.3272 1.444 0.162
v -0.35582 1.444 -0.162
v -0.35582 1.444 0.162
v -0.46382 0.958 -0.162
v -0.4622 0.958 -0.162
v -0.46382 1.012 -0.162
v -0.4352 1.012 -0.162
v -0.4622 0.904 -0.162
v -0.3542 1.336 -0.162
v -0.4892 0.85 -0.162
v -0.49082 0.85 -0.162
v -0.49082 0.904 -0.162
v -0.4082 1.12 -0.162
v -0.4352 1.066 -0.162
v -0.43682 1.12 -0.162
v -0.43682 1.066 -0.162
v -0.3812 1.228 -0.162
v -0.4082 1.174 -0.162
v -0.40982 1.228 -0.162
v -0.40982 1.174 -0.162
v -0.3812 1.282 -0.162
v -0.38282 1.336 -0.162
v -0.38282 1.282 -0.162
v -0.3542 1.39 -0.162
v -0.35582 1.39 -0.162
v -0.4892 0.85 0.162
v -0.4622 0.904 0.162
v -0.3542 1.336 0.162
v -0.49082 0.85 0.162
v -0.4352 1.012 0.162
v -0.4622 0.958 0.162
v -0.46382 0.958 0.162
v -0.4082 1.12 0.162
v -0.4352 1.066 0.162
v -0.43682 1.066 0.162
v -0.3812 1.228 0.162
v -0.4082 1.174 0.162
v -0.40982 1.174 0.162
v -0.3812 1.282 0.162
v -0.38282 1.282 0.162
v -0.3542 1.39 0.162
v -0.35582 1.39 0.162
v -0.40982 1.228 0.162
v -0.43682 1.12 0.162
v -0.46382 1.012 0.162
v -0.38282 1.336 0.162
v -0.49082 0.904 0.162
v 0.1620024 0.796 0.3271988
v -0.1620024 0.796 0.3271988
v 0.1620024 0.796 0.4892012
v -0.1620024 0.796 0.4892012
v -0.1620024 1.444 0.3271988
v 0.1620024 1.444 0.3271988
v -0.1620024 1.444 0.3558192
v 0.1620024 1.444 0.3558192
v -0.1620024 0.958 0.4638208
v -0.1620024 0.958 0.4622008
v -0.1620024 1.012 0.4638208
v -0.1620024 1.012 0.4352004
v -0.1620024 0.904 0.4622008
v -0.1620024 1.336 0.3541992
v -0.1620024 0.85 0.4892012
v -0.1620024 0.85 0.4908212
v -0.1620024 0.904 0.4908212
v -0.1620024 1.12 0.4082
v -0.1620024 1.066 0.4352004
v -0.1620024 1.12 0.4368204
v -0.1620024 1.066 0.4368204
v -0.1620024 1.228 0.3811996
v -0.1620024 1.174 0.4082
v -0.1620024 1.228 0.4098201
v -0.1620024 1.174 0.4098201
v -0.1620024 1.282 0.3811996
v -0.1620024 1.336 0.3828197
v -0.1620024 1.282 0.3828197
v -0.1620024 1.39 0.3541992
v -0.1620024 1.39 0.3558192
v 0.1620024 0.85 0.4892012
v 0.1620024 0.904 0.4622008
v 0.1620024 1.336 0.3541992
v 0.1620024 0.85 0.4908212
v 0.1620024 1.012 0.4352004
v 0.1620024 0.958 0.4622008
v 0.1620024 0.958 0.4638208
v 0.1620024 1.12 0.4082
v 0.1620024 1.066 0.4352004
v 0.1620024 1.066 0.4368204
v 0.1620024 1.228 0.3811996
v 0.1620024 1.174 0.4082
v 0.1620024 1.174 0.40982
v 0.1620024 1.282 0.3811996
v 0.1620024 1.282 0.3828196
v 0.1620024 1.39 0.3541992
v 0.1620024 1.39 0.3558192
v 0.1620024 1.228 0.40982
v 0.1620024 1.12 0.4368204
v 0.1620024 1.012 0.4638208
v 0.1620024 1.336 0.3828196
v 0.1620024 0.904 0.4908212
v 0.3272 0.796 -0.162
v 0.3272 0.796 0.162
v 0.4892 0.796 -0.162
v 0.4892 0.796 0.162
v 0.3272 1.444 0.162
v 0.3272 1.444 -0.162
v 0.35582 1.444 0.162
v 0.35582 1.444 -0.162
v 0.46382 0.958 0.162
v 0.4622 0.958 0.162
v 0.46382 1.012 0.162
v 0.4352 1.012 0.162
v 0.4622 0.904 0.162
v 0.3542 1.336 0.162
v 0.4892 0.85 0.162
v 0.49082 0.85 0.162
v 0.49082 0.904 0.162
v 0.4082 1.12 0.162
v 0.4352 1.066 0.162
v 0.43682 1.12 0.162
v 0.43682 1.066 0.162
v 0.3812 1.228 0.162
v 0.4082 1.174 0.162
v 0.40982 1.228 0.162
v 0.40982 1.174 0.162
v 0.3812 1.282 0.162
v 0.38282 1.336 0.162
v 0.38282 1.282 0.162
v 0.3542 1.39 0.162
v 0.35582 1.39 0.162
v 0.4892 0.85 -0.162
v 0.4622 0.904 -0.162
v 0.3542 1.336 -0.162
v 0.49082 0.85 -0.162
v 0.4352 1.012 -0.162
v 0.4622 0.958 -0.162
v 0.46382 0.958 -0.162
v 0.4082 1.12 -0.162
v 0.4352 1.066 -0.162
v 0.43682 1.066 -0.162
v 0.3812 1.228 -0.162
v 0.4082 1.174 -0.162
v 0.40982 1.174 -0.162
v 0.3812 1.282 -0.162
v 0.38282 1.282 -0.162
v 0.3542 1.39 -0.162
v 0.35582 1.39 -0.162
v 0.40982 1.228 -0.162
v 0.43682 1.12 -0.162
v 0.46382 1.012 -0.162
v 0.38282 1.336 -0.162
v 0.49082 0.904 -0.162
v -0.1620012 0.796 -0.3271994
v 0.1620012 0.796 -0.3271994
v -0.1620012 0.796 -0.4892006
v 0.1620012 0.796 -0.4892006
v 0.1620012 1.444 -0.3271994
v -0.1620012 1.444 -0.3271994
v 0.1620012 1.444 -0.3558196
v -0.1620012 1.444 -0.3558196
v 0.1620012 0.958 -0.4638204
v 0.1620012 0.958 -0.4622004
v 0.1620012 1.012 -0.4638204
v 0.1620012 1.012 -0.4352002
v 0.1620012 0.904 -0.4622004
v 0.1620012 1.336 -0.3541996
v 0.1620012 0.85 -0.4892006
v 0.1620012 0.85 -0.4908206
v 0.1620012 0.904 -0.4908206
v 0.1620012 1.12 -0.4082
v 0.1620012 1.066 -0.4352002
v 0.1620012 1.12 -0.4368202
v 0.1620012 1.066 -0.4368202
v 0.1620012 1.228 -0.3811998
v 0.1620012 1.174 -0.4082
v 0.1620012 1.228 -0.40982
v 0.1620012 1.174 -0.40982
v 0.1620012 1.282 -0.3811998
v 0.1620012 1.336 -0.3828198
v 0.1620012 1.282 -0.3828198
v 0.1620012 1.39 -0.3541996
v 0.1620012 1.39 -0.3558196
v -0.1620012 0.85 -0.4892006
v -0.1620012 0.904 -0.4622004
v -0.1620012 1.336 -0.3541996
v -0.1620012 0.85 -0.4908206
v -0.1620012 1.012 -0.4352002
v -0.1620012 0.958 -0.4622004
v -0.1620012 0.958 -0.4638204
v -0.1620012 1.12 -0.4082
v -0.1620012 1.066 -0.4352002
v -0.1620012 1.066 -0.4368202
v -0.1620012 1.228 -0.3811998
v -0.1620012 1.174 -0.4082
v -0.1620012 1.174 -0.40982
v -0.1620012 1.282 -0.3811998
v -0.1620012 1.282 -0.3828198
v -0.1620012 1.39 -0.3541996
v -0.1620012 1.39 -0.3558196
v -0.1620012 1.228 -0.40982
v -0.1620012 1.12 -0.4368202
v -0.1620012 1.012 -0.4638204
v -0.1620012 1.336 -0.3828198
v -0.1620012 0.904 -0.4908206

vn 0 -1 0
vn -1 0 0
vn 0 0 -1
vn 0 0 1
vn 1 0 0
vn 0 1 0
vn -1.192093E-07 0 -1
vn -1 0 1.192093E-07
vn 1 0 -1.192093E-07
vn 1.192093E-07 0 1
vn -1 0 -8.742278E-08
vn -8.742278E-08 0 1
vn 8.742278E-08 0 -1
vn 1 0 8.742278E-08
vn -1.192093E-07 0 1
vn 1 0 1.192093E-07
vn -1 0 -1.192093E-07
vn 1.192093E-07 0 -1

vt -1 0
vt -1 1
vt 0 0
vt 0 1
vt 1 0
vt 1 1
vt -1 -1
vt 0 -1
vt 0 1.5
vt 0 2.5
vt 1 1.5
vt 1 2.5
vt 2.5 1
vt 2.5 1.804779E-16
vt 1.5 1
vt 1.5 1.804779E-16
vt 0 -2.5
vt 0 -1.5
vt 0.1766667 -2.5
vt 0.1766667 -1.5
vt 0.8433334 0.25
vt 0.8333334 0.25
vt 0.8433334 0.3333333
vt 0.6666667 0.3333333
vt 0.8333334 0.1666667
vt -0.6666667 0.3333333
vt -0.8333334 0.1666667
vt -0.1666667 0.8333333
vt 0.1666667 0.8333333
vt 0 1.804779E-16
vt 1 0.08333334
vt 1.01 0.08333334
vt 1.01 0.1666667
vt -0.5 0.5
vt 0.6666667 0.4166667
vt 0.5 0.5
vt 0.6766667 0.5
vt 0.6766667 0.4166667
vt -0.3333333 0.6666667
vt 0.5 0.5833333
vt 0.3333333 0.6666667
vt 0.51 0.6666667
vt 0.51 0.5833333
vt 0.3333333 0.75
vt 0.3433333 0.8333333
vt 0.3433333 0.75
vt 0.1666667 0.9166666
vt 0.1766667 1
vt 0.1766667 0.9166666
vt -1 0.08333334
vt -1.01 0.08333334
vt -0.8333334 0.25
vt -0.8433334 0.25
vt -0.6666667 0.4166667
vt -0.6766667 0.4166667
vt -0.5 0.5833333
vt -0.51 0.5833333
vt -0.3333333 0.75
vt -0.3433333 0.75
vt -0.1666667 0.9166666
vt -0.1766667 0.9166666
vt -0.1766667 1
vt -0.51 0.6666667
vt -0.6766667 0.5
vt -0.8433334 0.3333333
vt -0.3433333 0.8333333
vt -1.01 0.1666667
vt 0.8333334 -2.5
vt 0.8333334 -1.5
vt 1.01 -2.5
vt 1.01 -1.5
vt 0.6666667 -2.5
vt 0.6666667 -1.5
vt 0.8433334 -2.5
vt 0.8433334 -1.5
vt 0.5 -2.5
vt 0.5 -1.5
vt 0.6766667 -2.5
vt 0.6766667 -1.5
vt 0.3333333 -2.5
vt 0.3333333 -1.5
vt 0.51 -2.5
vt 0.51 -1.5
vt 0.1666667 -2.5
vt 0.1666667 -1.5
vt 0.3433333 -2.5
vt 0.3433333 -1.5
vt -2.5 0.08333334
vt -2.5 0.1666667
vt -1.5 0.08333334
vt -1.5 0.1666667
vt 1.01 1.5
vt 1.01 2.5
vt -2.5 0.25
vt -2.5 0.3333333
vt -1.5 0.25
vt -1.5 0.3333333
vt 0.8333334 1.5
vt 0.8333334 2.5
vt 0.8433334 1.5
vt 0.8433334 2.5
vt -2.5 0.4166667
vt -2.5 0.5
vt -1.5 0.4166667
vt -1.5 0.5
vt 0.6666667 1.5
vt 0.6666667 2.5
vt 0.6766667 1.5
vt 0.6766667 2.5
vt -2.5 0.5833333
vt -2.5 0.6666667
vt -1.5 0.5833333
vt -1.5 0.6666667
vt 0.5 1.5
vt 0.5 2.5
vt 0.51 1.5
vt 0.51 2.5
vt -2.5 0.75
vt -2.5 0.8333333
vt -1.5 0.75
vt -1.5 0.8333333
vt 0.3333333 1.5
vt 0.3333333 2.5
vt 0.3433333 1.5
vt 0.3433333 2.5
vt -2.5 0.9166666
vt -2.5 1
vt -1.5 0.9166666
vt -1.5 1
vt 0.1666667 1.5
vt 0.1666667 2.5
vt 0.1766667 1.5
vt 0.1766667 2.5
vt -2.5 0
vt -1.5 0

usemtl _defaultMat

f 3/3/1 2/2/1 1/1/1
f 2/2/1 3/3/1 4/4/1
f 3/3/2 5/2/2 4/1/2
f 5/2/2 3/3/2 6/4/2
f 5/4/3 2/1/3 4/3/3
f 2/1/3 5/4/3 7/2/3
f 8/6/4 3/3/4 1/5/4
f 3/3/4 8/6/4 6/4/4
f 8/4/5 2/5/5 7/6/5
f 2/5/5 8/4/5 1/3/5
f 5/8/6 8/1/6 7/7/6
f 8/1/6 5/8/6 6/3/6

usemtl stoneLight

f 11/11/1 10/10/1 9/9/1
f 10/10/1 11/11/1 12/12/1
f 14/15/5 10/14/5 13/13/5
f 10/14/5 14/15/5 9/16/5
f 15/19/6 14/18/6 13/17/6
f 14/18/6 15/19/6 16/20/6
f 19/23/3 18/22/3 17/21/3
f 20/24/3 18/22/3 19/23/3
f 20/24/3 21/25/3 18/22/3
f 22/28/3 21/27/3 20/26/3
f 10/30/3 21/25/3 22/29/3
f 10/30/3 23/31/3 21/25/3
f 23/31/3 10/30/3 12/5/3
f 10/30/3 22/29/3 13/4/3
f 21/25/3 23/31/3 24/32/3
f 21/25/3 24/32/3 25/33/3
f 22/28/3 20/26/3 26/34/3
f 26/36/3 20/24/3 27/35/3
f 26/36/3 27/35/3 28/37/3
f 28/37/3 27/35/3 29/38/3
f 22/28/3 26/34/3 30/39/3
f 30/41/3 26/36/3 31/40/3
f 30/41/3 31/40/3 32/42/3
f 32/42/3 31/40/3 33/43/3
f 22/29/3 30/41/3 34/44/3
f 22/29/3 34/44/3 35/45/3
f 35/45/3 34/44/3 36/46/3
f 13/4/3 22/29/3 37/47/3
f 13/4/3 37/47/3 15/48/3
f 15/48/3 37/47/3 38/49/3
f 9/30/4 39/50/4 11/1/4
f 39/50/4 9/30/4 40/27/4
f 40/27/4 9/30/4 41/28/4
f 41/28/4 9/30/4 14/4/4
f 39/50/4 40/27/4 42/51/4
f 40/27/4 41/28/4 43/26/4
f 40/27/4 43/26/4 44/52/4
f 44/52/4 43/26/4 45/53/4
f 43/26/4 41/28/4 46/34/4
f 43/26/4 46/34/4 47/54/4
f 47/54/4 46/34/4 48/55/4
f 46/34/4 41/28/4 49/39/4
f 46/34/4 49/39/4 50/56/4
f 50/56/4 49/39/4 51/57/4
f 49/39/4 41/28/4 52/58/4
f 52/58/4 41/28/4 53/59/4
f 41/28/4 14/4/4 54/60/4
f 54/60/4 14/4/4 55/61/4
f 55/61/4 14/4/4 16/62/4
f 56/63/4 51/57/4 49/39/4
f 57/64/4 48/55/4 46/34/4
f 58/65/4 45/53/4 43/26/4
f 59/66/4 53/59/4 41/28/4
f 60/67/4 42/51/4 40/27/4
f 25/70/6 40/69/6 21/68/6
f 40/69/6 25/70/6 60/71/6
f 19/74/6 43/73/6 20/72/6
f 43/73/6 19/74/6 58/75/6
f 28/78/6 46/77/6 26/76/6
f 46/77/6 28/78/6 57/79/6
f 32/82/6 49/81/6 30/80/6
f 49/81/6 32/82/6 56/83/6
f 35/86/6 41/85/6 22/84/6
f 41/85/6 35/86/6 59/87/6
f 42/90/2 25/89/2 24/88/2
f 25/89/2 42/90/2 60/91/2
f 42/92/1 23/12/1 39/11/1
f 23/12/1 42/92/1 24/93/1
f 45/96/2 19/95/2 17/94/2
f 19/95/2 45/96/2 58/97/2
f 45/100/1 18/99/1 44/98/1
f 18/99/1 45/100/1 17/101/1
f 48/104/2 28/103/2 29/102/2
f 28/103/2 48/104/2 57/105/2
f 48/108/1 27/107/1 47/106/1
f 27/107/1 48/108/1 29/109/1
f 51/112/2 32/111/2 33/110/2
f 32/111/2 51/112/2 56/113/2
f 51/116/1 31/115/1 50/114/1
f 31/115/1 51/116/1 33/117/1
f 53/120/2 35/119/2 36/118/2
f 35/119/2 53/120/2 59/121/2
f 53/124/1 34/123/1 52/122/1
f 34/123/1 53/124/1 36/125/1
f 55/128/2 15/127/2 38/126/2
f 15/127/2 55/128/2 16/129/2
f 55/132/1 37/131/1 54/130/1
f 37/131/1 55/132/1 38/133/1
f 63/11/1 62/10/1 61/9/1
f 62/10/1 63/11/1 64/12/1
f 66/15/7 62/14/7 65/13/7
f 62/14/7 66/15/7 61/16/7
f 67/19/6 66/18/6 65/17/6
f 66/18/6 67/19/6 68/20/6
f 71/23/8 70/22/8 69/21/8
f 72/24/8 70/22/8 71/23/8
f 72/24/8 73/25/8 70/22/8
f 74/28/8 73/27/8 72/26/8
f 62/30/8 73/25/8 74/29/8
f 62/30/8 75/31/8 73/25/8
f 75/31/8 62/30/8 64/5/8
f 62/30/8 74/29/8 65/4/8
f 73/25/8 75/31/8 76/32/8
f 73/25/8 76/32/8 77/33/8
f 74/28/8 72/26/8 78/34/8
f 78/36/8 72/24/8 79/35/8
f 78/36/8 79/35/8 80/37/8
f 80/37/8 79/35/8 81/38/8
f 74/28/8 78/34/8 82/39/8
f 82/41/8 78/36/8 83/40/8
f 82/41/8 83/40/8 84/42/8
f 84/42/8 83/40/8 85/43/8
f 74/29/8 82/41/8 86/44/8
f 74/29/8 86/44/8 87/45/8
f 87/45/8 86/44/8 88/46/8
f 65/4/8 74/29/8 89/47/8
f 65/4/8 89/47/8 67/48/8
f 67/48/8 89/47/8 90/49/8
f 61/30/9 91/50/9 63/1/9
f 91/50/9 61/30/9 92/27/9
f 92/27/9 61/30/9 93/28/9
f 93/28/9 61/30/9 66/4/9
f 91/50/9 92/27/9 94/51/9
f 92/27/9 93/28/9 95/26/9
f 92/27/9 95/26/9 96/52/9
f 96/52/9 95/26/9 97/53/9
f 95/26/9 93/28/9 98/34/9
f 95/26/9 98/34/9 99/54/9
f 99/54/9 98/34/9 100/55/9
f 98/34/9 93/28/9 101/39/9
f 98/34/9 101/39/9 102/56/9
f 102/56/9 101/39/9 103/57/9
f 101/39/9 93/28/9 104/58/9
f 104/58/9 93/28/9 105/59/9
f 93/28/9 66/4/9 106/60/9
f 106/60/9 66/4/9 107/61/9
f 107/61/9 66/4/9 68/62/9
f 108/63/9 103/57/9 101/39/9
f 109/64/9 100/55/9 98/34/9
f 110/65/9 97/53/9 95/26/9
f 111/66/9 105/59/9 93/28/9
f 112/67/9 94/51/9 92/27/9
f 77/70/6 92/69/6 73/68/6
f 92/69/6 77/70/6 112/71/6
f 71/74/6 95/73/6 72/72/6
f 95/73/6 71/74/6 110/75/6
f 80/78/6 98/77/6 78/76/6
f 98/77/6 80/78/6 109/79/6
f 84/82/6 101/81/6 82/80/6
f 101/81/6 84/82/6 108/83/6
f 87/86/6 93/85/6 74/84/6
f 93/85/6 87/86/6 111/87/6
f 94/90/10 77/89/10 76/88/10
f 77/89/10 94/90/10 112/91/10
f 94/92/1 75/12/1 91/11/1
f 75/12/1 94/92/1 76/93/1
f 97/96/10 71/95/10 69/94/10
f 71/95/10 97/96/10 110/97/10
f 97/100/1 70/99/1 96/98/1
f 70/99/1 97/100/1 69/101/1
f 100/104/10 80/103/10 81/102/10
f 80/103/10 100/104/10 109/105/10
f 100/108/1 79/107/1 99/106/1
f 79/107/1 100/108/1 81/109/1
f 103/112/10 84/111/10 85/110/10
f 84/111/10 103/112/10 108/113/10
f 103/116/1 83/115/1 102/114/1
f 83/115/1 103/116/1 85/117/1
f 105/120/10 87/119/10 88/118/10
f 87/119/10 105/120/10 111/121/10
f 105/124/1 86/123/1 104/122/1
f 86/123/1 105/124/1 88/125/1
f 107/128/10 67/127/10 90/126/10
f 67/127/10 107/128/10 68/129/10
f 107/132/1 89/131/1 106/130/1
f 89/131/1 107/132/1 90/133/1
f 115/11/1 114/10/1 113/9/1
f 114/10/1 115/11/1 116/12/1
f 118/15/11 114/14/11 117/13/11
f 114/14/11 118/15/11 113/16/11
f 119/19/6 118/18/6 117/17/6
f 118/18/6 119/19/6 120/20/6
f 123/23/12 122/22/12 121/21/12
f 124/24/12 122/22/12 123/23/12
f 124/24/12 125/25/12 122/22/12
f 126/28/12 125/27/12 124/26/12
f 114/30/12 125/25/12 126/29/12
f 114/30/12 127/31/12 125/25/12
f 127/31/12 114/30/12 116/5/12
f 114/30/12 126/29/12 117/4/12
f 125/25/12 127/31/12 128/32/12
f 125/25/12 128/32/12 129/33/12
f 126/28/12 124/26/12 130/34/12
f 130/36/12 124/24/12 131/35/12
f 130/36/12 131/35/12 132/37/12
f 132/37/12 131/35/12 133/38/12
f 126/28/12 130/34/12 134/39/12
f 134/41/12 130/36/12 135/40/12
f 134/41/12 135/40/12 136/42/12
f 136/42/12 135/40/12 137/43/12
f 126/29/12 134/41/12 138/44/12
f 126/29/12 138/44/12 139/45/12
f 139/45/12 138/44/12 140/46/12
f 117/4/12 126/29/12 141/47/12
f 117/4/12 141/47/12 119/48/12
f 119/48/12 141/47/12 142/49/12
f 113/30/13 143/50/13 115/1/13
f 143/50/13 113/30/13 144/27/13
f 144/27/13 113/30/13 145/28/13
f 145/28/13 113/30/13 118/4/13
f 143/50/13 144/27/13 146/51/13
f 144/27/13 145/28/13 147/26/13
f 144/27/13 147/26/13 148/52/13
f 148/52/13 147/26/13 149/53/13
f 147/26/13 145/28/13 150/34/13
f 147/26/13 150/34/13 151/54/13
f 151/54/13 150/34/13 152/55/13
f 150/34/13 145/28/13 153/39/13
f 150/34/13 153/39/13 154/56/13
f 154/56/13 153/39/13 155/57/13
f 153/39/13 145/28/13 156/58/13
f 156/58/13 145/28/13 157/59/13
f 145/28/13 118/4/13 158/60/13
f 158/60/13 118/4/13 159/61/13
f 159/61/13 118/4/13 120/62/13
f 160/63/13 155/57/13 153/39/13
f 161/64/13 152/55/13 150/34/13
f 162/65/13 149/53/13 147/26/13
f 163/66/13 157/59/13 145/28/13
f 164/67/13 146/51/13 144/27/13
f 129/70/6 144/69/6 125/68/6
f 144/69/6 129/70/6 164/71/6
f 123/74/6 147/73/6 124/72/6
f 147/73/6 123/74/6 162/75/6
f 132/78/6 150/77/6 130/76/6
f 150/77/6 132/78/6 161/79/6
f 136/82/6 153/81/6 134/80/6
f 153/81/6 136/82/6 160/83/6
f 139/86/6 145/85/6 126/84/6
f 145/85/6 139/86/6 163/87/6
f 146/90/14 129/89/14 128/88/14
f 129/89/14 146/90/14 164/91/14
f 146/92/1 127/12/1 143/11/1
f 127/12/1 146/92/1 128/93/1
f 149/96/14 123/95/14 121/94/14
f 123/95/14 149/96/14 162/97/14
f 149/100/1 122/99/1 148/98/1
f 122/99/1 149/100/1 121/101/1
f 152/104/14 132/103/14 133/102/14
f 132/103/14 152/104/14 161/105/14
f 152/108/1 131/107/1 151/106/1
f 131/107/1 152/108/1 133/109/1
f 155/112/14 136/111/14 137/110/14
f 136/111/14 155/112/14 160/113/14
f 155/116/1 135/115/1 154/114/1
f 135/115/1 155/116/1 137/117/1
f 157/120/14 139/119/14 140/118/14
f 139/119/14 157/120/14 163/121/14
f 157/124/1 138/123/1 156/122/1
f 138/123/1 157/124/1 140/125/1
f 159/128/14 119/127/14 142/126/14
f 119/127/14 159/128/14 120/129/14
f 159/132/1 141/131/1 158/130/1
f 141/131/1 159/132/1 142/133/1
f 167/11/1 166/10/1 165/9/1
f 166/10/1 167/11/1 168/12/1
f 170/15/15 166/14/15 169/13/15
f 166/14/15 170/15/15 165/16/15
f 171/19/6 170/18/6 169/17/6
f 170/18/6 171/19/6 172/20/6
f 175/23/16 174/22/16 173/21/16
f 176/24/16 174/22/16 175/23/16
f 176/24/16 177/25/16 174/22/16
f 178/28/16 177/27/16 176/26/16
f 166/30/16 177/25/16 178/29/16
f 166/30/16 179/31/16 177/25/16
f 179/31/16 166/30/16 168/5/16
f 166/30/16 178/29/16 169/4/16
f 177/25/16 179/31/16 180/32/16
f 177/25/16 180/32/16 181/33/16
f 178/28/16 176/26/16 182/34/16
f 182/36/16 176/24/16 183/35/16
f 182/36/16 183/35/16 184/37/16
f 184/37/16 183/35/16 185/38/16
f 178/28/16 182/34/16 186/39/16
f 186/41/16 182/36/16 187/40/16
f 186/41/16 187/40/16 188/42/16
f 188/42/16 187/40/16 189/43/16
f 178/29/16 186/41/16 190/44/16
f 178/29/16 190/44/16 191/45/16
f 191/45/16 190/44/16 192/46/16
f 169/4/16 178/29/16 193/47/16
f 169/4/16 193/47/16 171/48/16
f 171/48/16 193/47/16 194/49/16
f 165/30/17 195/50/17 167/1/17
f 195/50/17 165/30/17 196/27/17
f 196/27/17 165/30/17 197/28/17
f 197/28/17 165/30/17 170/4/17
f 195/50/17 196/27/17 198/51/17
f 196/27/17 197/28/17 199/26/17
f 196/27/17 199/26/17 200/52/17
f 200/52/17 199/26/17 201/53/17
f 199/26/17 197/28/17 202/34/17
f 199/26/17 202/34/17 203/54/17
f 203/54/17 202/34/17 204/55/17
f 202/34/17 197/28/17 205/39/17
f 202/34/17 205/39/17 206/56/17
f 206/56/17 205/39/17 207/57/17
f 205/39/17 197/28/17 208/58/17
f 208/58/17 197/28/17 209/59/17
f 197/28/17 170/4/17 210/60/17
f 210/60/17 170/4/17 211/61/17
f 211/61/17 170/4/17 172/62/17
f 212/63/17 207/57/17 205/39/17
f 213/64/17 204/55/17 202/34/17
f 214/65/17 201/53/17 199/26/17
f 215/66/17 209/59/17 197/28/17
f 216/67/17 198/51/17 196/27/17
f 181/70/6 196/69/6 177/68/6
f 196/69/6 181/70/6 216/71/6
f 175/74/6 199/73/6 176/72/6
f 199/73/6 175/74/6 214/75/6
f 184/78/6 202/77/6 182/76/6
f 202/77/6 184/78/6 213/79/6
f 188/82/6 205/81/6 186/80/6
f 205/81/6 188/82/6 212/83/6
f 191/86/6 197/85/6 178/84/6
f 197/85/6 191/86/6 215/87/6
f 198/90/18 181/89/18 180/88/18
f 181/89/18 198/90/18 216/91/18
f 198/92/1 179/12/1 195/11/1
f 179/12/1 198/92/1 180/93/1
f 201/96/18 175/95/18 173/94/18
f 175/95/18 201/96/18 214/97/18
f 201/100/1 174/99/1 200/98/1
f 174/99/1 201/100/1 173/101/1
f 204/104/18 184/103/18 185/102/18
f 184/103/18 204/104/18 213/105/18
f 204/108/1 183/107/1 203/106/1
f 183/107/1 204/108/1 185/109/1
f 207/112/18 188/111/18 189/110/18
f 188/111/18 207/112/18 212/113/18
f 207/116/1 187/115/1 206/114/1
f 187/115/1 207/116/1 189/117/1
f 209/120/18 191/119/18 192/118/18
f 191/119/18 209/120/18 215/121/18
f 209/124/1 190/123/1 208/122/1
f 190/123/1 209/124/1 192/125/1
f 211/128/18 171/127/18 194/126/18
f 171/127/18 211/128/18 172/129/18
f 211/132/1 193/131/1 210/130/1
f 193/131/1 211/132/1 194/133/1

usemtl stoneDark

f 11/135/2 23/88/2 12/134/2
f 23/88/2 11/135/2 39/90/2
f 40/91/2 18/94/2 21/89/2
f 18/94/2 40/91/2 44/96/2
f 43/97/2 27/102/2 20/95/2
f 27/102/2 43/97/2 47/104/2
f 46/105/2 31/110/2 26/103/2
f 31/110/2 46/105/2 50/112/2
f 49/113/2 34/118/2 30/111/2
f 34/118/2 49/113/2 52/120/2
f 41/121/2 37/126/2 22/119/2
f 37/126/2 41/121/2 54/128/2
f 63/135/10 75/88/10 64/134/10
f 75/88/10 63/135/10 91/90/10
f 92/91/10 70/94/10 73/89/10
f 70/94/10 92/91/10 96/96/10
f 95/97/10 79/102/10 72/95/10
f 79/102/10 95/97/10 99/104/10
f 98/105/10 83/110/10 78/103/10
f 83/110/10 98/105/10 102/112/10
f 101/113/10 86/118/10 82/111/10
f 86/118/10 101/113/10 104/120/10
f 93/121/10 89/126/10 74/119/10
f 89/126/10 93/121/10 106/128/10
f 115/135/14 127/88/14 116/134/14
f 127/88/14 115/135/14 143/90/14
f 144/91/14 122/94/14 125/89/14
f 122/94/14 144/91/14 148/96/14
f 147/97/14 131/102/14 124/95/14
f 131/102/14 147/97/14 151/104/14
f 150/105/14 135/110/14 130/103/14
f 135/110/14 150/105/14 154/112/14
f 153/113/14 138/118/14 134/111/14
f 138/118/14 153/113/14 156/120/14
f 145/121/14 141/126/14 126/119/14
f 141/126/14 145/121/14 158/128/14
f 167/135/18 179/88/18 168/134/18
f 179/88/18 167/135/18 195/90/18
f 196/91/18 174/94/18 177/89/18
f 174/94/18 196/91/18 200/96/18
f 199/97/18 183/102/18 176/95/18
f 183/102/18 199/97/18 203/104/18
f 202/105/18 187/110/18 182/103/18
f 187/110/18 202/105/18 206/112/18
f 205/113/18 190/118/18 186/111/18
f 190/118/18 205/113/18 208/120/18
f 197/121/18 193/126/18 178/119/18
f 193/126/18 197/121/18 210/128/18

